<?xml version="1.0" encoding="utf-8"?>
<!-- Generator: Adobe Illustrator 14.0.0, SVG Export Plug-In . SVG Version: 6.00 Build 43363)  -->
<!DOCTYPE svg PUBLIC "-//W3C//DTD SVG 1.1//EN" "http://www.w3.org/Graphics/SVG/1.1/DTD/svg11.dtd">
<svg version="1.1" id="Functions_copy" xmlns="http://www.w3.org/2000/svg" xmlns:xlink="http://www.w3.org/1999/xlink" x="0px"
	 y="0px" width="350px" height="525px" viewBox="0 0 350 525" enable-background="new 0 0 350 525" xml:space="preserve">
<g>
	<path fill="#F0F0F0" d="M0,20C0,9,9,0,20,0h135c11,0,20,9,20,20v135.002c0,11-9,20-20,20H20c-11,0-20-9-20-20V20z"/>
</g>
<g>
	<path fill="#DCDCDC" d="M262.534,505c0.001,11,9.002,20,20.002,20H330c11,0,20-9,20-20V20c0-11-9-20-20-20H107.5c-11,0-20,9-20,20
		v47.5c0,11-9,20-20,20H20c-11,0-20,9-20,20v47.502c0,11,9,20,20,20h222.5c11,0,20.001,9,20.002,20L262.534,505z"/>
</g>
<g>
	<path fill="#FFDF7F" d="M175,457.5c0-11,9-20,20-20h47.5c11,0,20,9,20,20V505c0,11-9,20-20,20H195c-11,0-20-9-20-20V457.5z"/>
</g>
</svg>
